# xmcd
#
# Track frame offsets: 
#        150
#        15422
#        33537
#        44422
#        61790
#        75382
#        85105
#        102935
#        121345
#        139990
#        166505
#
# Disc length: 2367 seconds
#
# Revision: 1
# Processed by: cddbd v1.4PL0 Copyright (c) Steve Scherf et al.
# Submitted via: ExactAudioCopy v0.95a4
#
DISCID=7b093d0b
DTITLE=K.K. (K.Kristjansson) - Lucky one
DYEAR=1991
DGENRE=Blues
TTITLE0=Lucky one
TTITLE1=True to you
TTITLE2=Waiting for my woman
TTITLE3=Blue truck
TTITLE4=Night Song
TTITLE5=Rainbow
TTITLE6=Back street beat
TTITLE7=I got a woman
TTITLE8=Wake me
TTITLE9=Crying
TTITLE10=Rubber boots
EXTD=
EXTT0=
EXTT1=
EXTT2=
EXTT3=
EXTT4=
EXTT5=
EXTT6=
EXTT7=
EXTT8=
EXTT9=
EXTT10=
PLAYORDER=
